<?xml version="1.0" encoding="UTF-8" standalone="no"?>
<!DOCTYPE svg PUBLIC "-//W3C//DTD SVG 1.1//EN" "http://www.w3.org/Graphics/SVG/1.1/DTD/svg11.dtd">
<svg width="100%" height="100%" viewBox="0 0 207 207" version="1.1" xmlns="http://www.w3.org/2000/svg" xmlns:xlink="http://www.w3.org/1999/xlink" xml:space="preserve" xmlns:serif="http://www.serif.com/" style="fill-rule:evenodd;clip-rule:evenodd;stroke-linejoin:round;stroke-miterlimit:2;">
    <g transform="matrix(0.419935,0,0,0.419935,-48.0087,-114.451)">
        <g id="Artboard1">
            <g>
                <g transform="matrix(4.91912,0,0,4.91912,117.294,273.055)">
                    <path d="M97.705,41.138L97.705,60.191C97.705,61.47 96.669,62.506 95.39,62.506L76.346,62.506C75.067,62.506 74.031,61.47 74.031,60.191L74.031,41.138C74.031,39.859 75.067,38.823 76.346,38.823L95.39,38.823C96.669,38.823 97.705,39.859 97.705,41.138ZM93.075,43.453L78.661,43.453L78.661,57.876L93.075,57.876L93.075,43.453Z" style="fill:rgb(64,197,94);"/>
                </g>
                <g transform="matrix(4.91912,0,0,4.91912,117.294,273.055)">
                    <rect x="76.346" y="41.138" width="19.044" height="19.053" style="fill:rgb(4,255,108);"/>
                </g>
                <g transform="matrix(4.91912,0,0,4.91912,117.294,273.055)">
                    <path d="M15.396,36.558C23.178,36.558 29.497,42.878 29.497,50.664C29.497,58.45 23.178,64.77 15.396,64.77C7.614,64.77 1.295,58.45 1.295,50.664C1.295,42.878 7.614,36.558 15.396,36.558ZM15.396,41.188C10.169,41.188 5.925,45.434 5.925,50.664C5.925,55.894 10.169,60.14 15.396,60.14C20.623,60.14 24.867,55.894 24.867,50.664C24.867,45.434 20.623,41.188 15.396,41.188Z" style="fill:rgb(64,197,94);"/>
                </g>
                <g transform="matrix(4.91912,0,0,4.91912,117.294,273.055)">
                    <ellipse cx="15.396" cy="50.664" rx="11.786" ry="11.791" style="fill:rgb(4,255,108);"/>
                </g>
                <g transform="matrix(4.91912,0,0,4.91912,117.294,273.055)">
                    <path d="M66.599,19.098L53.469,32.233C53.035,32.667 52.446,32.911 51.832,32.911C51.218,32.911 50.629,32.667 50.195,32.233L37.066,19.098C36.162,18.194 36.162,16.728 37.066,15.824L50.195,2.688C50.629,2.254 51.218,2.01 51.832,2.01C52.446,2.01 53.035,2.254 53.469,2.688L66.599,15.824C67.503,16.728 67.503,18.194 66.599,19.098ZM61.689,17.461L51.832,7.6L41.976,17.461L51.832,27.321L61.689,17.461Z" style="fill:rgb(64,197,94);"/>
                </g>
                <g transform="matrix(4.91912,0,0,4.91912,117.294,273.055)">
                    <path d="M64.962,17.461L51.832,30.596L38.703,17.461L51.832,4.325L64.962,17.461Z" style="fill:rgb(4,255,108);"/>
                </g>
                <g transform="matrix(4.91912,0,0,4.91912,117.294,273.055)">
                    <path d="M64.028,85.244L51.966,97.312C51.532,97.746 50.943,97.99 50.329,97.99C49.715,97.99 49.126,97.746 48.692,97.312L36.63,85.244C35.726,84.34 35.726,82.874 36.63,81.97L48.692,69.903C49.126,69.469 49.715,69.225 50.329,69.225C50.943,69.225 51.532,69.469 51.966,69.903L64.028,81.97C64.932,82.874 64.932,84.34 64.028,85.244ZM59.118,83.607L50.329,74.815L41.54,83.607L50.329,92.4L59.118,83.607Z" style="fill:rgb(64,197,94);"/>
                </g>
                <g transform="matrix(4.91912,0,0,4.91912,117.294,273.055)">
                    <path d="M62.391,83.607L50.329,95.675L38.267,83.607L50.329,71.54L62.391,83.607Z" style="fill:rgb(4,255,108);"/>
                </g>
                <g transform="matrix(4.91912,0,0,4.91912,117.294,273.055)">
                    <path d="M67.095,48.534L67.095,52.794L43.644,52.794L43.644,59.185L31.559,50.664L43.644,42.143L43.644,48.534L67.095,48.534Z" style="fill:rgb(55,55,55);"/>
                </g>
                <g transform="matrix(4.91912,0,0,4.91912,117.294,273.055)">
                    <path d="M13.483,85.522L13.483,78.918L6.879,78.918L15.396,66.834L23.914,78.918L17.31,78.918L17.31,81.692L31.559,81.692L31.559,85.522L13.483,85.522Z" style="fill:rgb(55,55,55);"/>
                </g>
                <g transform="matrix(4.91912,0,0,4.91912,117.294,273.055)">
                    <path d="M13.483,32.73L13.483,15.546L22.487,15.546L22.487,8.939L34.566,17.461L22.487,25.982L22.487,19.376L17.31,19.376L17.31,32.73L13.483,32.73Z" style="fill:rgb(55,55,55);"/>
                </g>
                <g transform="matrix(4.91912,0,0,4.91912,117.294,273.055)">
                    <path d="M83.954,19.376L70.672,19.376L70.672,15.546L87.781,15.546L87.781,24.631L94.385,24.631L85.868,36.715L77.35,24.631L83.954,24.631L83.954,19.376Z" style="fill:rgb(55,55,55);"/>
                </g>
                <g transform="matrix(4.91912,0,0,4.91912,117.294,273.055)">
                    <path d="M87.781,68.525L87.781,85.522L81.074,85.522L81.074,92.129L68.995,83.607L81.074,75.086L81.074,81.692L83.954,81.692L83.954,68.525L87.781,68.525Z" style="fill:rgb(55,55,55);"/>
                </g>
            </g>
        </g>
    </g>
</svg>
